G04 #@! TF.FileFunction,Legend,Top*
%FSLAX46Y46*%
G04 Gerber Fmt 4.6, Leading zero omitted, Abs format (unit mm)*
G04 Created by KiCad (PCBNEW 4.0.7-e2-6376~58~ubuntu16.04.1) date Mon Mar 11 22:56:59 2019*
%MOMM*%
%LPD*%
G01*
G04 APERTURE LIST*
%ADD10C,0.100000*%
%ADD11C,0.300000*%
%ADD12C,0.150000*%
%ADD13C,0.254000*%
G04 APERTURE END LIST*
D10*
D11*
X152500001Y-103928571D02*
X153428572Y-103928571D01*
X152928572Y-104500000D01*
X153142858Y-104500000D01*
X153285715Y-104571429D01*
X153357144Y-104642857D01*
X153428572Y-104785714D01*
X153428572Y-105142857D01*
X153357144Y-105285714D01*
X153285715Y-105357143D01*
X153142858Y-105428571D01*
X152714286Y-105428571D01*
X152571429Y-105357143D01*
X152500001Y-105285714D01*
X144071429Y-102321429D02*
X144142858Y-102250000D01*
X144285715Y-102178571D01*
X144642858Y-102178571D01*
X144785715Y-102250000D01*
X144857144Y-102321429D01*
X144928572Y-102464286D01*
X144928572Y-102607143D01*
X144857144Y-102821429D01*
X144000001Y-103678571D01*
X144928572Y-103678571D01*
X152428572Y-100178571D02*
X151571429Y-100178571D01*
X152000001Y-100178571D02*
X152000001Y-98678571D01*
X151857144Y-98892857D01*
X151714286Y-99035714D01*
X151571429Y-99107143D01*
X145428572Y-114178571D02*
X144571429Y-114178571D01*
X145000001Y-114178571D02*
X145000001Y-112678571D01*
X144857144Y-112892857D01*
X144714286Y-113035714D01*
X144571429Y-113107143D01*
D12*
X145900000Y-112000000D02*
X152100000Y-112000000D01*
X152100000Y-112000000D02*
X152100000Y-115000000D01*
X152100000Y-115000000D02*
X145900000Y-115000000D01*
X145900000Y-115000000D02*
X145900000Y-112000000D01*
X148000000Y-112000000D02*
X148000000Y-115000000D01*
X152250000Y-103000000D02*
G75*
G03X152250000Y-103000000I-3500000J0D01*
G01*
D13*
G36*
X153373000Y-110873000D02*
X144627000Y-110873000D01*
X144627000Y-106127000D01*
X153373000Y-106127000D01*
X153373000Y-110873000D01*
X153373000Y-110873000D01*
G37*
X153373000Y-110873000D02*
X144627000Y-110873000D01*
X144627000Y-106127000D01*
X153373000Y-106127000D01*
X153373000Y-110873000D01*
M02*
