%FSLAX45Y45*%
G04 Gerber Fmt 4.5, Leading zero omitted, Abs format (unit mm)*
G04 Created by KiCad (PCBNEW (5.0.2)-1) date 30/04/2019 17:31:21*
%MOMM*%
%LPD*%
G01*
G04 APERTURE LIST*
%ADD10C,0.150000*%
%ADD11C,0.200000*%
%ADD12C,0.300000*%
G04 APERTURE END LIST*
D10*
X15400000Y-9800000D02*
G75*
G03X15100000Y-9500000I-300000J0D01*
G01*
X14700000Y-9500000D02*
G75*
G03X14400000Y-9800000I0J-300000D01*
G01*
X14400000Y-11450000D02*
G75*
G03X14450000Y-11500000I50000J0D01*
G01*
X15350000Y-11500000D02*
G75*
G03X15400000Y-11450000I0J50000D01*
G01*
X14400000Y-9800000D02*
X14400000Y-11450000D01*
X15100000Y-9500000D02*
X14700000Y-9500000D01*
X15400000Y-11450000D02*
X15400000Y-9800000D01*
X14450000Y-11500000D02*
X15350000Y-11500000D01*
D11*
X15190000Y-11183000D02*
X15310000Y-11303000D01*
X15310000Y-11183000D02*
X15190000Y-11303000D01*
X14996000Y-9705263D02*
G75*
G03X14996000Y-9705263I-65000J0D01*
G01*
D12*
X14678928Y-11973214D02*
X14678928Y-11673214D01*
X14750357Y-11673214D01*
X14793214Y-11687500D01*
X14821786Y-11716071D01*
X14836071Y-11744643D01*
X14850357Y-11801786D01*
X14850357Y-11844643D01*
X14836071Y-11901786D01*
X14821786Y-11930357D01*
X14793214Y-11958929D01*
X14750357Y-11973214D01*
X14678928Y-11973214D01*
X14978928Y-11973214D02*
X14978928Y-11773214D01*
X14978928Y-11830357D02*
X14993214Y-11801786D01*
X15007500Y-11787500D01*
X15036071Y-11773214D01*
X15064643Y-11773214D01*
X15164643Y-11973214D02*
X15164643Y-11773214D01*
X15164643Y-11673214D02*
X15150357Y-11687500D01*
X15164643Y-11701786D01*
X15178928Y-11687500D01*
X15164643Y-11673214D01*
X15164643Y-11701786D01*
X15350357Y-11973214D02*
X15321786Y-11958929D01*
X15307500Y-11930357D01*
X15307500Y-11673214D01*
X15507500Y-11973214D02*
X15478928Y-11958929D01*
X15464643Y-11930357D01*
X15464643Y-11673214D01*
X15850357Y-11973214D02*
X15850357Y-11673214D01*
X15950357Y-11887500D01*
X16050357Y-11673214D01*
X16050357Y-11973214D01*
X16321786Y-11973214D02*
X16321786Y-11816071D01*
X16307500Y-11787500D01*
X16278928Y-11773214D01*
X16221786Y-11773214D01*
X16193214Y-11787500D01*
X16321786Y-11958929D02*
X16293214Y-11973214D01*
X16221786Y-11973214D01*
X16193214Y-11958929D01*
X16178928Y-11930357D01*
X16178928Y-11901786D01*
X16193214Y-11873214D01*
X16221786Y-11858929D01*
X16293214Y-11858929D01*
X16321786Y-11844643D01*
X16464643Y-11773214D02*
X16464643Y-12073214D01*
X16464643Y-11787500D02*
X16493214Y-11773214D01*
X16550357Y-11773214D01*
X16578928Y-11787500D01*
X16593214Y-11801786D01*
X16607500Y-11830357D01*
X16607500Y-11916071D01*
X16593214Y-11944643D01*
X16578928Y-11958929D01*
X16550357Y-11973214D01*
X16493214Y-11973214D01*
X16464643Y-11958929D01*
X16736071Y-11944643D02*
X16750357Y-11958929D01*
X16736071Y-11973214D01*
X16721786Y-11958929D01*
X16736071Y-11944643D01*
X16736071Y-11973214D01*
X16736071Y-11787500D02*
X16750357Y-11801786D01*
X16736071Y-11816071D01*
X16721786Y-11801786D01*
X16736071Y-11787500D01*
X16736071Y-11816071D01*
X14272500Y-12407500D02*
X14392500Y-12527500D01*
X14392500Y-12407500D02*
X14272500Y-12527500D01*
X14836071Y-12603214D02*
X14664643Y-12603214D01*
X14750357Y-12603214D02*
X14750357Y-12303214D01*
X14721786Y-12346071D01*
X14693214Y-12374643D01*
X14664643Y-12388929D01*
X14964643Y-12574643D02*
X14978928Y-12588929D01*
X14964643Y-12603214D01*
X14950357Y-12588929D01*
X14964643Y-12574643D01*
X14964643Y-12603214D01*
X15093214Y-12331786D02*
X15107500Y-12317500D01*
X15136071Y-12303214D01*
X15207500Y-12303214D01*
X15236071Y-12317500D01*
X15250357Y-12331786D01*
X15264643Y-12360357D01*
X15264643Y-12388929D01*
X15250357Y-12431786D01*
X15078928Y-12603214D01*
X15264643Y-12603214D01*
X15450357Y-12303214D02*
X15478928Y-12303214D01*
X15507500Y-12317500D01*
X15521786Y-12331786D01*
X15536071Y-12360357D01*
X15550357Y-12417500D01*
X15550357Y-12488929D01*
X15536071Y-12546071D01*
X15521786Y-12574643D01*
X15507500Y-12588929D01*
X15478928Y-12603214D01*
X15450357Y-12603214D01*
X15421786Y-12588929D01*
X15407500Y-12574643D01*
X15393214Y-12546071D01*
X15378928Y-12488929D01*
X15378928Y-12417500D01*
X15393214Y-12360357D01*
X15407500Y-12331786D01*
X15421786Y-12317500D01*
X15450357Y-12303214D01*
X15678928Y-12603214D02*
X15678928Y-12403214D01*
X15678928Y-12431786D02*
X15693214Y-12417500D01*
X15721786Y-12403214D01*
X15764643Y-12403214D01*
X15793214Y-12417500D01*
X15807500Y-12446071D01*
X15807500Y-12603214D01*
X15807500Y-12446071D02*
X15821786Y-12417500D01*
X15850357Y-12403214D01*
X15893214Y-12403214D01*
X15921786Y-12417500D01*
X15936071Y-12446071D01*
X15936071Y-12603214D01*
X16078928Y-12603214D02*
X16078928Y-12403214D01*
X16078928Y-12431786D02*
X16093214Y-12417500D01*
X16121786Y-12403214D01*
X16164643Y-12403214D01*
X16193214Y-12417500D01*
X16207500Y-12446071D01*
X16207500Y-12603214D01*
X16207500Y-12446071D02*
X16221786Y-12417500D01*
X16250357Y-12403214D01*
X16293214Y-12403214D01*
X16321786Y-12417500D01*
X16336071Y-12446071D01*
X16336071Y-12603214D01*
X16921786Y-12288929D02*
X16664643Y-12674643D01*
X17307500Y-12303214D02*
X17336071Y-12303214D01*
X17364643Y-12317500D01*
X17378928Y-12331786D01*
X17393214Y-12360357D01*
X17407500Y-12417500D01*
X17407500Y-12488929D01*
X17393214Y-12546071D01*
X17378928Y-12574643D01*
X17364643Y-12588929D01*
X17336071Y-12603214D01*
X17307500Y-12603214D01*
X17278928Y-12588929D01*
X17264643Y-12574643D01*
X17250357Y-12546071D01*
X17236071Y-12488929D01*
X17236071Y-12417500D01*
X17250357Y-12360357D01*
X17264643Y-12331786D01*
X17278928Y-12317500D01*
X17307500Y-12303214D01*
X17536071Y-12574643D02*
X17550357Y-12588929D01*
X17536071Y-12603214D01*
X17521786Y-12588929D01*
X17536071Y-12574643D01*
X17536071Y-12603214D01*
X17736071Y-12303214D02*
X17764643Y-12303214D01*
X17793214Y-12317500D01*
X17807500Y-12331786D01*
X17821786Y-12360357D01*
X17836071Y-12417500D01*
X17836071Y-12488929D01*
X17821786Y-12546071D01*
X17807500Y-12574643D01*
X17793214Y-12588929D01*
X17764643Y-12603214D01*
X17736071Y-12603214D01*
X17707500Y-12588929D01*
X17693214Y-12574643D01*
X17678928Y-12546071D01*
X17664643Y-12488929D01*
X17664643Y-12417500D01*
X17678928Y-12360357D01*
X17693214Y-12331786D01*
X17707500Y-12317500D01*
X17736071Y-12303214D01*
X18093214Y-12403214D02*
X18093214Y-12603214D01*
X18021786Y-12288929D02*
X17950357Y-12503214D01*
X18136071Y-12503214D01*
X18221786Y-12303214D02*
X18421786Y-12303214D01*
X18293214Y-12603214D01*
X18521786Y-12303214D02*
X18521786Y-12360357D01*
X18636071Y-12303214D02*
X18636071Y-12360357D01*
X19078928Y-12717500D02*
X19064643Y-12703214D01*
X19036071Y-12660357D01*
X19021786Y-12631786D01*
X19007500Y-12588929D01*
X18993214Y-12517500D01*
X18993214Y-12460357D01*
X19007500Y-12388929D01*
X19021786Y-12346071D01*
X19036071Y-12317500D01*
X19064643Y-12274643D01*
X19078928Y-12260357D01*
X19350357Y-12603214D02*
X19178928Y-12603214D01*
X19264643Y-12603214D02*
X19264643Y-12303214D01*
X19236071Y-12346071D01*
X19207500Y-12374643D01*
X19178928Y-12388929D01*
X19707500Y-12603214D02*
X19707500Y-12303214D01*
X19836071Y-12603214D02*
X19836071Y-12446071D01*
X19821786Y-12417500D01*
X19793214Y-12403214D01*
X19750357Y-12403214D01*
X19721786Y-12417500D01*
X19707500Y-12431786D01*
X20021786Y-12603214D02*
X19993214Y-12588929D01*
X19978928Y-12574643D01*
X19964643Y-12546071D01*
X19964643Y-12460357D01*
X19978928Y-12431786D01*
X19993214Y-12417500D01*
X20021786Y-12403214D01*
X20064643Y-12403214D01*
X20093214Y-12417500D01*
X20107500Y-12431786D01*
X20121786Y-12460357D01*
X20121786Y-12546071D01*
X20107500Y-12574643D01*
X20093214Y-12588929D01*
X20064643Y-12603214D01*
X20021786Y-12603214D01*
X20293214Y-12603214D02*
X20264643Y-12588929D01*
X20250357Y-12560357D01*
X20250357Y-12303214D01*
X20521786Y-12588929D02*
X20493214Y-12603214D01*
X20436071Y-12603214D01*
X20407500Y-12588929D01*
X20393214Y-12560357D01*
X20393214Y-12446071D01*
X20407500Y-12417500D01*
X20436071Y-12403214D01*
X20493214Y-12403214D01*
X20521786Y-12417500D01*
X20536071Y-12446071D01*
X20536071Y-12474643D01*
X20393214Y-12503214D01*
X20636071Y-12717500D02*
X20650357Y-12703214D01*
X20678928Y-12660357D01*
X20693214Y-12631786D01*
X20707500Y-12588929D01*
X20721786Y-12517500D01*
X20721786Y-12460357D01*
X20707500Y-12388929D01*
X20693214Y-12346071D01*
X20678928Y-12317500D01*
X20650357Y-12274643D01*
X20636071Y-12260357D01*
X21178928Y-12717500D02*
X21164643Y-12703214D01*
X21136071Y-12660357D01*
X21121786Y-12631786D01*
X21107500Y-12588929D01*
X21093214Y-12517500D01*
X21093214Y-12460357D01*
X21107500Y-12388929D01*
X21121786Y-12346071D01*
X21136071Y-12317500D01*
X21164643Y-12274643D01*
X21178928Y-12260357D01*
X21293214Y-12403214D02*
X21293214Y-12603214D01*
X21293214Y-12431786D02*
X21307500Y-12417500D01*
X21336071Y-12403214D01*
X21378928Y-12403214D01*
X21407500Y-12417500D01*
X21421786Y-12446071D01*
X21421786Y-12603214D01*
X21607500Y-12603214D02*
X21578928Y-12588929D01*
X21564643Y-12574643D01*
X21550357Y-12546071D01*
X21550357Y-12460357D01*
X21564643Y-12431786D01*
X21578928Y-12417500D01*
X21607500Y-12403214D01*
X21650357Y-12403214D01*
X21678928Y-12417500D01*
X21693214Y-12431786D01*
X21707500Y-12460357D01*
X21707500Y-12546071D01*
X21693214Y-12574643D01*
X21678928Y-12588929D01*
X21650357Y-12603214D01*
X21607500Y-12603214D01*
X21793214Y-12403214D02*
X21907500Y-12403214D01*
X21836071Y-12303214D02*
X21836071Y-12560357D01*
X21850357Y-12588929D01*
X21878928Y-12603214D01*
X21907500Y-12603214D01*
X22236071Y-12403214D02*
X22236071Y-12703214D01*
X22236071Y-12417500D02*
X22264643Y-12403214D01*
X22321786Y-12403214D01*
X22350357Y-12417500D01*
X22364643Y-12431786D01*
X22378928Y-12460357D01*
X22378928Y-12546071D01*
X22364643Y-12574643D01*
X22350357Y-12588929D01*
X22321786Y-12603214D01*
X22264643Y-12603214D01*
X22236071Y-12588929D01*
X22550357Y-12603214D02*
X22521786Y-12588929D01*
X22507500Y-12560357D01*
X22507500Y-12303214D01*
X22793214Y-12603214D02*
X22793214Y-12446071D01*
X22778928Y-12417500D01*
X22750357Y-12403214D01*
X22693214Y-12403214D01*
X22664643Y-12417500D01*
X22793214Y-12588929D02*
X22764643Y-12603214D01*
X22693214Y-12603214D01*
X22664643Y-12588929D01*
X22650357Y-12560357D01*
X22650357Y-12531786D01*
X22664643Y-12503214D01*
X22693214Y-12488929D01*
X22764643Y-12488929D01*
X22793214Y-12474643D01*
X22893214Y-12403214D02*
X23007500Y-12403214D01*
X22936071Y-12303214D02*
X22936071Y-12560357D01*
X22950357Y-12588929D01*
X22978928Y-12603214D01*
X23007500Y-12603214D01*
X23221786Y-12588929D02*
X23193214Y-12603214D01*
X23136071Y-12603214D01*
X23107500Y-12588929D01*
X23093214Y-12560357D01*
X23093214Y-12446071D01*
X23107500Y-12417500D01*
X23136071Y-12403214D01*
X23193214Y-12403214D01*
X23221786Y-12417500D01*
X23236071Y-12446071D01*
X23236071Y-12474643D01*
X23093214Y-12503214D01*
X23493214Y-12603214D02*
X23493214Y-12303214D01*
X23493214Y-12588929D02*
X23464643Y-12603214D01*
X23407500Y-12603214D01*
X23378928Y-12588929D01*
X23364643Y-12574643D01*
X23350357Y-12546071D01*
X23350357Y-12460357D01*
X23364643Y-12431786D01*
X23378928Y-12417500D01*
X23407500Y-12403214D01*
X23464643Y-12403214D01*
X23493214Y-12417500D01*
X23607500Y-12717500D02*
X23621786Y-12703214D01*
X23650357Y-12660357D01*
X23664643Y-12631786D01*
X23678928Y-12588929D01*
X23693214Y-12517500D01*
X23693214Y-12460357D01*
X23678928Y-12388929D01*
X23664643Y-12346071D01*
X23650357Y-12317500D01*
X23621786Y-12274643D01*
X23607500Y-12260357D01*
X14392500Y-12863500D02*
G75*
G03X14392500Y-12863500I-65000J0D01*
G01*
X14836071Y-12999214D02*
X14664643Y-12999214D01*
X14750357Y-12999214D02*
X14750357Y-12699214D01*
X14721786Y-12742071D01*
X14693214Y-12770643D01*
X14664643Y-12784929D01*
X14964643Y-12970643D02*
X14978928Y-12984929D01*
X14964643Y-12999214D01*
X14950357Y-12984929D01*
X14964643Y-12970643D01*
X14964643Y-12999214D01*
X15078928Y-12699214D02*
X15264643Y-12699214D01*
X15164643Y-12813500D01*
X15207500Y-12813500D01*
X15236071Y-12827786D01*
X15250357Y-12842071D01*
X15264643Y-12870643D01*
X15264643Y-12942071D01*
X15250357Y-12970643D01*
X15236071Y-12984929D01*
X15207500Y-12999214D01*
X15121786Y-12999214D01*
X15093214Y-12984929D01*
X15078928Y-12970643D01*
X15450357Y-12699214D02*
X15478928Y-12699214D01*
X15507500Y-12713500D01*
X15521786Y-12727786D01*
X15536071Y-12756357D01*
X15550357Y-12813500D01*
X15550357Y-12884929D01*
X15536071Y-12942071D01*
X15521786Y-12970643D01*
X15507500Y-12984929D01*
X15478928Y-12999214D01*
X15450357Y-12999214D01*
X15421786Y-12984929D01*
X15407500Y-12970643D01*
X15393214Y-12942071D01*
X15378928Y-12884929D01*
X15378928Y-12813500D01*
X15393214Y-12756357D01*
X15407500Y-12727786D01*
X15421786Y-12713500D01*
X15450357Y-12699214D01*
X15678928Y-12999214D02*
X15678928Y-12799214D01*
X15678928Y-12827786D02*
X15693214Y-12813500D01*
X15721786Y-12799214D01*
X15764643Y-12799214D01*
X15793214Y-12813500D01*
X15807500Y-12842071D01*
X15807500Y-12999214D01*
X15807500Y-12842071D02*
X15821786Y-12813500D01*
X15850357Y-12799214D01*
X15893214Y-12799214D01*
X15921786Y-12813500D01*
X15936071Y-12842071D01*
X15936071Y-12999214D01*
X16078928Y-12999214D02*
X16078928Y-12799214D01*
X16078928Y-12827786D02*
X16093214Y-12813500D01*
X16121786Y-12799214D01*
X16164643Y-12799214D01*
X16193214Y-12813500D01*
X16207500Y-12842071D01*
X16207500Y-12999214D01*
X16207500Y-12842071D02*
X16221786Y-12813500D01*
X16250357Y-12799214D01*
X16293214Y-12799214D01*
X16321786Y-12813500D01*
X16336071Y-12842071D01*
X16336071Y-12999214D01*
X16921786Y-12684929D02*
X16664643Y-13070643D01*
X17307500Y-12699214D02*
X17336071Y-12699214D01*
X17364643Y-12713500D01*
X17378928Y-12727786D01*
X17393214Y-12756357D01*
X17407500Y-12813500D01*
X17407500Y-12884929D01*
X17393214Y-12942071D01*
X17378928Y-12970643D01*
X17364643Y-12984929D01*
X17336071Y-12999214D01*
X17307500Y-12999214D01*
X17278928Y-12984929D01*
X17264643Y-12970643D01*
X17250357Y-12942071D01*
X17236071Y-12884929D01*
X17236071Y-12813500D01*
X17250357Y-12756357D01*
X17264643Y-12727786D01*
X17278928Y-12713500D01*
X17307500Y-12699214D01*
X17536071Y-12970643D02*
X17550357Y-12984929D01*
X17536071Y-12999214D01*
X17521786Y-12984929D01*
X17536071Y-12970643D01*
X17536071Y-12999214D01*
X17736071Y-12699214D02*
X17764643Y-12699214D01*
X17793214Y-12713500D01*
X17807500Y-12727786D01*
X17821786Y-12756357D01*
X17836071Y-12813500D01*
X17836071Y-12884929D01*
X17821786Y-12942071D01*
X17807500Y-12970643D01*
X17793214Y-12984929D01*
X17764643Y-12999214D01*
X17736071Y-12999214D01*
X17707500Y-12984929D01*
X17693214Y-12970643D01*
X17678928Y-12942071D01*
X17664643Y-12884929D01*
X17664643Y-12813500D01*
X17678928Y-12756357D01*
X17693214Y-12727786D01*
X17707500Y-12713500D01*
X17736071Y-12699214D01*
X18107500Y-12699214D02*
X17964643Y-12699214D01*
X17950357Y-12842071D01*
X17964643Y-12827786D01*
X17993214Y-12813500D01*
X18064643Y-12813500D01*
X18093214Y-12827786D01*
X18107500Y-12842071D01*
X18121786Y-12870643D01*
X18121786Y-12942071D01*
X18107500Y-12970643D01*
X18093214Y-12984929D01*
X18064643Y-12999214D01*
X17993214Y-12999214D01*
X17964643Y-12984929D01*
X17950357Y-12970643D01*
X18407500Y-12999214D02*
X18236071Y-12999214D01*
X18321786Y-12999214D02*
X18321786Y-12699214D01*
X18293214Y-12742071D01*
X18264643Y-12770643D01*
X18236071Y-12784929D01*
X18521786Y-12699214D02*
X18521786Y-12756357D01*
X18636071Y-12699214D02*
X18636071Y-12756357D01*
X19078928Y-13113500D02*
X19064643Y-13099214D01*
X19036071Y-13056357D01*
X19021786Y-13027786D01*
X19007500Y-12984929D01*
X18993214Y-12913500D01*
X18993214Y-12856357D01*
X19007500Y-12784929D01*
X19021786Y-12742071D01*
X19036071Y-12713500D01*
X19064643Y-12670643D01*
X19078928Y-12656357D01*
X19350357Y-12999214D02*
X19178928Y-12999214D01*
X19264643Y-12999214D02*
X19264643Y-12699214D01*
X19236071Y-12742071D01*
X19207500Y-12770643D01*
X19178928Y-12784929D01*
X19707500Y-12999214D02*
X19707500Y-12699214D01*
X19836071Y-12999214D02*
X19836071Y-12842071D01*
X19821786Y-12813500D01*
X19793214Y-12799214D01*
X19750357Y-12799214D01*
X19721786Y-12813500D01*
X19707500Y-12827786D01*
X20021786Y-12999214D02*
X19993214Y-12984929D01*
X19978928Y-12970643D01*
X19964643Y-12942071D01*
X19964643Y-12856357D01*
X19978928Y-12827786D01*
X19993214Y-12813500D01*
X20021786Y-12799214D01*
X20064643Y-12799214D01*
X20093214Y-12813500D01*
X20107500Y-12827786D01*
X20121786Y-12856357D01*
X20121786Y-12942071D01*
X20107500Y-12970643D01*
X20093214Y-12984929D01*
X20064643Y-12999214D01*
X20021786Y-12999214D01*
X20293214Y-12999214D02*
X20264643Y-12984929D01*
X20250357Y-12956357D01*
X20250357Y-12699214D01*
X20521786Y-12984929D02*
X20493214Y-12999214D01*
X20436071Y-12999214D01*
X20407500Y-12984929D01*
X20393214Y-12956357D01*
X20393214Y-12842071D01*
X20407500Y-12813500D01*
X20436071Y-12799214D01*
X20493214Y-12799214D01*
X20521786Y-12813500D01*
X20536071Y-12842071D01*
X20536071Y-12870643D01*
X20393214Y-12899214D01*
X20636071Y-13113500D02*
X20650357Y-13099214D01*
X20678928Y-13056357D01*
X20693214Y-13027786D01*
X20707500Y-12984929D01*
X20721786Y-12913500D01*
X20721786Y-12856357D01*
X20707500Y-12784929D01*
X20693214Y-12742071D01*
X20678928Y-12713500D01*
X20650357Y-12670643D01*
X20636071Y-12656357D01*
X21178928Y-13113500D02*
X21164643Y-13099214D01*
X21136071Y-13056357D01*
X21121786Y-13027786D01*
X21107500Y-12984929D01*
X21093214Y-12913500D01*
X21093214Y-12856357D01*
X21107500Y-12784929D01*
X21121786Y-12742071D01*
X21136071Y-12713500D01*
X21164643Y-12670643D01*
X21178928Y-12656357D01*
X21293214Y-12799214D02*
X21293214Y-12999214D01*
X21293214Y-12827786D02*
X21307500Y-12813500D01*
X21336071Y-12799214D01*
X21378928Y-12799214D01*
X21407500Y-12813500D01*
X21421786Y-12842071D01*
X21421786Y-12999214D01*
X21607500Y-12999214D02*
X21578928Y-12984929D01*
X21564643Y-12970643D01*
X21550357Y-12942071D01*
X21550357Y-12856357D01*
X21564643Y-12827786D01*
X21578928Y-12813500D01*
X21607500Y-12799214D01*
X21650357Y-12799214D01*
X21678928Y-12813500D01*
X21693214Y-12827786D01*
X21707500Y-12856357D01*
X21707500Y-12942071D01*
X21693214Y-12970643D01*
X21678928Y-12984929D01*
X21650357Y-12999214D01*
X21607500Y-12999214D01*
X21793214Y-12799214D02*
X21907500Y-12799214D01*
X21836071Y-12699214D02*
X21836071Y-12956357D01*
X21850357Y-12984929D01*
X21878928Y-12999214D01*
X21907500Y-12999214D01*
X22236071Y-12799214D02*
X22236071Y-13099214D01*
X22236071Y-12813500D02*
X22264643Y-12799214D01*
X22321786Y-12799214D01*
X22350357Y-12813500D01*
X22364643Y-12827786D01*
X22378928Y-12856357D01*
X22378928Y-12942071D01*
X22364643Y-12970643D01*
X22350357Y-12984929D01*
X22321786Y-12999214D01*
X22264643Y-12999214D01*
X22236071Y-12984929D01*
X22550357Y-12999214D02*
X22521786Y-12984929D01*
X22507500Y-12956357D01*
X22507500Y-12699214D01*
X22793214Y-12999214D02*
X22793214Y-12842071D01*
X22778928Y-12813500D01*
X22750357Y-12799214D01*
X22693214Y-12799214D01*
X22664643Y-12813500D01*
X22793214Y-12984929D02*
X22764643Y-12999214D01*
X22693214Y-12999214D01*
X22664643Y-12984929D01*
X22650357Y-12956357D01*
X22650357Y-12927786D01*
X22664643Y-12899214D01*
X22693214Y-12884929D01*
X22764643Y-12884929D01*
X22793214Y-12870643D01*
X22893214Y-12799214D02*
X23007500Y-12799214D01*
X22936071Y-12699214D02*
X22936071Y-12956357D01*
X22950357Y-12984929D01*
X22978928Y-12999214D01*
X23007500Y-12999214D01*
X23221786Y-12984929D02*
X23193214Y-12999214D01*
X23136071Y-12999214D01*
X23107500Y-12984929D01*
X23093214Y-12956357D01*
X23093214Y-12842071D01*
X23107500Y-12813500D01*
X23136071Y-12799214D01*
X23193214Y-12799214D01*
X23221786Y-12813500D01*
X23236071Y-12842071D01*
X23236071Y-12870643D01*
X23093214Y-12899214D01*
X23493214Y-12999214D02*
X23493214Y-12699214D01*
X23493214Y-12984929D02*
X23464643Y-12999214D01*
X23407500Y-12999214D01*
X23378928Y-12984929D01*
X23364643Y-12970643D01*
X23350357Y-12942071D01*
X23350357Y-12856357D01*
X23364643Y-12827786D01*
X23378928Y-12813500D01*
X23407500Y-12799214D01*
X23464643Y-12799214D01*
X23493214Y-12813500D01*
X23607500Y-13113500D02*
X23621786Y-13099214D01*
X23650357Y-13056357D01*
X23664643Y-13027786D01*
X23678928Y-12984929D01*
X23693214Y-12913500D01*
X23693214Y-12856357D01*
X23678928Y-12784929D01*
X23664643Y-12742071D01*
X23650357Y-12713500D01*
X23621786Y-12670643D01*
X23607500Y-12656357D01*
M02*
