G04 #@! TF.GenerationSoftware,KiCad,Pcbnew,(5.0.2)-1*
G04 #@! TF.CreationDate,2019-05-02T20:07:25+02:00*
G04 #@! TF.ProjectId,5pin,3570696e-2e6b-4696-9361-645f70636258,rev?*
G04 #@! TF.SameCoordinates,Original*
G04 #@! TF.FileFunction,Copper,L1,Top*
G04 #@! TF.FilePolarity,Positive*
%FSLAX46Y46*%
G04 Gerber Fmt 4.6, Leading zero omitted, Abs format (unit mm)*
G04 Created by KiCad (PCBNEW (5.0.2)-1) date 02/05/2019 20:07:25*
%MOMM*%
%LPD*%
G01*
G04 APERTURE LIST*
G04 #@! TA.AperFunction,ComponentPad*
%ADD10C,2.000000*%
G04 #@! TD*
G04 #@! TA.AperFunction,ComponentPad*
%ADD11C,1.500000*%
G04 #@! TD*
G04 #@! TA.AperFunction,Conductor*
%ADD12C,1.500000*%
G04 #@! TD*
G04 #@! TA.AperFunction,ComponentPad*
%ADD13O,3.000000X1.500000*%
G04 #@! TD*
G04 #@! TA.AperFunction,ComponentPad*
%ADD14C,1.250000*%
G04 #@! TD*
G04 #@! TA.AperFunction,ComponentPad*
%ADD15R,1.250000X1.250000*%
G04 #@! TD*
G04 #@! TA.AperFunction,Conductor*
%ADD16C,1.000000*%
G04 #@! TD*
G04 APERTURE END LIST*
D10*
G04 #@! TO.P,J2,*
G04 #@! TO.N,*
X150000000Y-94500000D03*
D11*
G04 #@! TO.P,J2,2*
G04 #@! TO.N,Net-(J1-Pad2)*
X148139262Y-101351905D03*
D12*
G04 #@! TD*
G04 #@! TO.N,Net-(J1-Pad2)*
G04 #@! TO.C,J2*
X148746025Y-100911066D02*
X147532499Y-101792744D01*
D11*
G04 #@! TO.P,J2,3*
G04 #@! TO.N,Net-(J1-Pad3)*
X150710738Y-102187429D03*
D12*
G04 #@! TD*
G04 #@! TO.N,Net-(J1-Pad3)*
G04 #@! TO.C,J2*
X150478975Y-101474137D02*
X150942501Y-102900721D01*
D13*
G04 #@! TO.P,J2,4*
G04 #@! TO.N,Net-(J1-Pad4)*
X152300000Y-100000000D03*
D11*
G04 #@! TO.P,J2,5*
G04 #@! TO.N,Net-(J1-Pad5)*
X150710738Y-97812571D03*
D12*
G04 #@! TD*
G04 #@! TO.N,Net-(J1-Pad5)*
G04 #@! TO.C,J2*
X150478975Y-98525863D02*
X150942501Y-97099279D01*
D11*
G04 #@! TO.P,J2,1*
G04 #@! TO.N,Net-(J1-Pad1)*
X148139262Y-98648095D03*
D12*
G04 #@! TD*
G04 #@! TO.N,Net-(J1-Pad1)*
G04 #@! TO.C,J2*
X148746025Y-99088934D02*
X147532499Y-98207256D01*
D14*
G04 #@! TO.P,J1,5*
G04 #@! TO.N,Net-(J1-Pad5)*
X154000000Y-108750000D03*
G04 #@! TO.P,J1,4*
G04 #@! TO.N,Net-(J1-Pad4)*
X152000000Y-108750000D03*
G04 #@! TO.P,J1,3*
G04 #@! TO.N,Net-(J1-Pad3)*
X150000000Y-108750000D03*
G04 #@! TO.P,J1,2*
G04 #@! TO.N,Net-(J1-Pad2)*
X148000000Y-108750000D03*
D15*
G04 #@! TO.P,J1,1*
G04 #@! TO.N,Net-(J1-Pad1)*
X146000000Y-108750000D03*
G04 #@! TD*
D16*
G04 #@! TO.N,Net-(J1-Pad1)*
X148127067Y-99147712D02*
X148039355Y-99060000D01*
X148826926Y-99147712D02*
X148127067Y-99147712D01*
X146000000Y-100380000D02*
X146000000Y-108750000D01*
X147232288Y-99147712D02*
X146000000Y-100380000D01*
X148826926Y-99147712D02*
X147232288Y-99147712D01*
G04 #@! TO.N,Net-(J1-Pad2)*
X148000000Y-101679214D02*
X148826926Y-100852288D01*
X148000000Y-108750000D02*
X148000000Y-101679214D01*
G04 #@! TO.N,Net-(J1-Pad3)*
X150448074Y-101379031D02*
X150448074Y-102281926D01*
X150000000Y-102730000D02*
X150000000Y-108750000D01*
X150448074Y-102281926D02*
X150000000Y-102730000D01*
G04 #@! TO.N,Net-(J1-Pad4)*
X152000000Y-108750000D02*
X152000000Y-105175000D01*
X152000000Y-105175000D02*
X153035000Y-104140000D01*
X153035000Y-101585000D02*
X151450000Y-100000000D01*
X153035000Y-104140000D02*
X153035000Y-101585000D01*
G04 #@! TO.N,Net-(J1-Pad5)*
X154000000Y-108750000D02*
X154000000Y-105740000D01*
X154000000Y-105740000D02*
X155575000Y-104165000D01*
X155575000Y-104165000D02*
X155575000Y-98425000D01*
X155575000Y-98425000D02*
X154305000Y-97155000D01*
X151914043Y-97155000D02*
X150448074Y-98620969D01*
X154305000Y-97155000D02*
X151914043Y-97155000D01*
G04 #@! TD*
M02*
