G04 #@! TF.FileFunction,Copper,L1,Top,Signal*
%FSLAX46Y46*%
G04 Gerber Fmt 4.6, Leading zero omitted, Abs format (unit mm)*
G04 Created by KiCad (PCBNEW 4.0.7-e2-6376~58~ubuntu16.04.1) date Mon Mar 18 20:37:03 2019*
%MOMM*%
%LPD*%
G01*
G04 APERTURE LIST*
%ADD10C,0.100000*%
%ADD11R,1.250000X1.250000*%
%ADD12C,1.250000*%
%ADD13O,1.200000X1.200000*%
%ADD14C,0.700000*%
G04 APERTURE END LIST*
D10*
D11*
X146000000Y-111000000D03*
D12*
X148000000Y-111000000D03*
X150000000Y-111000000D03*
X152000000Y-111000000D03*
X154000000Y-111000000D03*
D13*
X151173074Y-99147712D03*
X149551926Y-98620969D03*
X148550000Y-100000000D03*
X149551926Y-101379031D03*
X151173074Y-100852288D03*
D14*
X146000000Y-111000000D02*
X146000000Y-107000000D01*
X146000000Y-107000000D02*
X145000000Y-106000000D01*
X147000000Y-97000000D02*
X150500000Y-97000000D01*
X145000000Y-106000000D02*
X145000000Y-99000000D01*
X145000000Y-99000000D02*
X147000000Y-97000000D01*
X150500000Y-97000000D02*
X151173074Y-97673074D01*
X151173074Y-97673074D02*
X151173074Y-99147712D01*
X148000000Y-111000000D02*
X148000000Y-106500000D01*
X148000000Y-106500000D02*
X146000000Y-104500000D01*
X146000000Y-104500000D02*
X146000000Y-99500000D01*
X146000000Y-99500000D02*
X146879031Y-98620969D01*
X146879031Y-98620969D02*
X149551926Y-98620969D01*
X150000000Y-111000000D02*
X150000000Y-105500000D01*
X150000000Y-105500000D02*
X147000000Y-102500000D01*
X147000000Y-102500000D02*
X147000000Y-100701472D01*
X147000000Y-100701472D02*
X147701472Y-100000000D01*
X147701472Y-100000000D02*
X148550000Y-100000000D01*
X152000000Y-111000000D02*
X152000000Y-103827105D01*
X152000000Y-103827105D02*
X149551926Y-101379031D01*
X154000000Y-111000000D02*
X154000000Y-102000000D01*
X154000000Y-102000000D02*
X152852288Y-100852288D01*
X152852288Y-100852288D02*
X151173074Y-100852288D01*
M02*
