G04 #@! TF.GenerationSoftware,KiCad,Pcbnew,(5.0.2)-1*
G04 #@! TF.CreationDate,2019-05-02T10:12:04+02:00*
G04 #@! TF.ProjectId,5pin,3570696e-2e6b-4696-9361-645f70636258,rev?*
G04 #@! TF.SameCoordinates,Original*
G04 #@! TF.FileFunction,Copper,L1,Top*
G04 #@! TF.FilePolarity,Positive*
%FSLAX46Y46*%
G04 Gerber Fmt 4.6, Leading zero omitted, Abs format (unit mm)*
G04 Created by KiCad (PCBNEW (5.0.2)-1) date 05/02/19 10:12:04*
%MOMM*%
%LPD*%
G01*
G04 APERTURE LIST*
G04 #@! TA.AperFunction,ComponentPad*
%ADD10C,1.250000*%
G04 #@! TD*
G04 #@! TA.AperFunction,ComponentPad*
%ADD11R,1.250000X1.250000*%
G04 #@! TD*
G04 #@! TA.AperFunction,ComponentPad*
%ADD12C,2.000000*%
G04 #@! TD*
G04 #@! TA.AperFunction,ComponentPad*
%ADD13C,1.500000*%
G04 #@! TD*
G04 #@! TA.AperFunction,Conductor*
%ADD14C,1.500000*%
G04 #@! TD*
G04 #@! TA.AperFunction,ComponentPad*
%ADD15O,3.000000X1.500000*%
G04 #@! TD*
G04 #@! TA.AperFunction,Conductor*
%ADD16C,1.000000*%
G04 #@! TD*
G04 #@! TA.AperFunction,Conductor*
%ADD17C,0.700000*%
G04 #@! TD*
G04 APERTURE END LIST*
D10*
G04 #@! TO.P,J1,5*
G04 #@! TO.N,Net-(J1-Pad5)*
X154000000Y-108750000D03*
G04 #@! TO.P,J1,4*
G04 #@! TO.N,Net-(J1-Pad4)*
X152000000Y-108750000D03*
G04 #@! TO.P,J1,3*
G04 #@! TO.N,Net-(J1-Pad3)*
X150000000Y-108750000D03*
G04 #@! TO.P,J1,2*
G04 #@! TO.N,Net-(J1-Pad2)*
X148000000Y-108750000D03*
D11*
G04 #@! TO.P,J1,1*
G04 #@! TO.N,Net-(J1-Pad1)*
X146000000Y-108750000D03*
G04 #@! TD*
D12*
G04 #@! TO.P,J2,*
G04 #@! TO.N,*
X150000000Y-94500000D03*
D13*
G04 #@! TO.P,J2,5*
G04 #@! TO.N,Net-(J1-Pad5)*
X151941640Y-101410684D03*
D14*
G04 #@! TD*
G04 #@! TO.N,Net-(J1-Pad5)*
G04 #@! TO.C,J2*
X152548403Y-101851523D02*
X151334877Y-100969845D01*
D13*
G04 #@! TO.P,J2,4*
G04 #@! TO.N,Net-(J1-Pad4)*
X149258360Y-102282535D03*
D14*
G04 #@! TD*
G04 #@! TO.N,Net-(J1-Pad4)*
G04 #@! TO.C,J2*
X149026597Y-102995827D02*
X149490123Y-101569243D01*
D15*
G04 #@! TO.P,J2,3*
G04 #@! TO.N,Net-(J1-Pad3)*
X147600000Y-100000000D03*
D13*
G04 #@! TO.P,J2,2*
G04 #@! TO.N,Net-(J1-Pad2)*
X149412868Y-98192994D03*
D14*
G04 #@! TD*
G04 #@! TO.N,Net-(J1-Pad2)*
G04 #@! TO.C,J2*
X149335614Y-97955230D02*
X149490122Y-98430758D01*
D13*
G04 #@! TO.P,J2,1*
G04 #@! TO.N,Net-(J1-Pad1)*
X151941640Y-98589316D03*
D14*
G04 #@! TD*
G04 #@! TO.N,Net-(J1-Pad1)*
G04 #@! TO.C,J2*
X152548403Y-98148477D02*
X151334877Y-99030155D01*
D16*
G04 #@! TO.N,Net-(J1-Pad1)*
X151173074Y-99147712D02*
X151173074Y-96673074D01*
X151173074Y-96673074D02*
X150750000Y-96250000D01*
X150750000Y-96250000D02*
X146000000Y-96250000D01*
X146000000Y-96250000D02*
X143750000Y-98500000D01*
X143750000Y-98500000D02*
X143750000Y-104500000D01*
X143750000Y-104500000D02*
X146000000Y-106750000D01*
X146000000Y-106750000D02*
X146000000Y-108750000D01*
D17*
G04 #@! TO.N,Net-(J1-Pad2)*
X149180957Y-98250000D02*
X149551926Y-98620969D01*
D16*
X146000000Y-98250000D02*
X149180957Y-98250000D01*
X145250000Y-99000000D02*
X146000000Y-98250000D01*
X145250000Y-103750000D02*
X145250000Y-99000000D01*
X148000000Y-106500000D02*
X145250000Y-103750000D01*
X148000000Y-106500000D02*
X148000000Y-108750000D01*
G04 #@! TO.N,Net-(J1-Pad3)*
X148550000Y-100000000D02*
X147250000Y-101300000D01*
X147250000Y-101300000D02*
X147250000Y-103750000D01*
X147250000Y-103750000D02*
X150000000Y-106500000D01*
X150000000Y-106500000D02*
X150000000Y-108750000D01*
D17*
G04 #@! TO.N,Net-(J1-Pad4)*
X149551926Y-101379031D02*
X149551926Y-102551926D01*
D16*
X149551926Y-102551926D02*
X152000000Y-105000000D01*
X152000000Y-105000000D02*
X152000000Y-108750000D01*
D17*
G04 #@! TO.N,Net-(J1-Pad5)*
X151173074Y-100852288D02*
X151173074Y-100923074D01*
D16*
X151173074Y-100923074D02*
X154000000Y-103750000D01*
X154000000Y-103750000D02*
X154000000Y-108750000D01*
G04 #@! TD*
M02*
