G04 #@! TF.FileFunction,Legend,Top*
%FSLAX46Y46*%
G04 Gerber Fmt 4.6, Leading zero omitted, Abs format (unit mm)*
G04 Created by KiCad (PCBNEW 4.0.7-e2-6376~58~ubuntu16.04.1) date Mon Mar 18 20:38:03 2019*
%MOMM*%
%LPD*%
G01*
G04 APERTURE LIST*
%ADD10C,0.100000*%
%ADD11C,0.300000*%
%ADD12C,0.150000*%
%ADD13C,0.254000*%
G04 APERTURE END LIST*
D10*
D11*
X145928572Y-105678571D02*
X145071429Y-105678571D01*
X145500001Y-105678571D02*
X145500001Y-104178571D01*
X145357144Y-104392857D01*
X145214286Y-104535714D01*
X145071429Y-104607143D01*
X155250001Y-104178571D02*
X156250001Y-104178571D01*
X155607144Y-105678571D01*
X155785715Y-108178571D02*
X155500001Y-108178571D01*
X155357144Y-108250000D01*
X155285715Y-108321429D01*
X155142858Y-108535714D01*
X155071429Y-108821429D01*
X155071429Y-109392857D01*
X155142858Y-109535714D01*
X155214286Y-109607143D01*
X155357144Y-109678571D01*
X155642858Y-109678571D01*
X155785715Y-109607143D01*
X155857144Y-109535714D01*
X155928572Y-109392857D01*
X155928572Y-109035714D01*
X155857144Y-108892857D01*
X155785715Y-108821429D01*
X155642858Y-108750000D01*
X155357144Y-108750000D01*
X155214286Y-108821429D01*
X155142858Y-108892857D01*
X155071429Y-109035714D01*
X149035715Y-108678571D02*
X149035715Y-109678571D01*
X148678572Y-108107143D02*
X148321429Y-109178571D01*
X149250001Y-109178571D01*
X148500001Y-103678571D02*
X149428572Y-103678571D01*
X148928572Y-104250000D01*
X149142858Y-104250000D01*
X149285715Y-104321429D01*
X149357144Y-104392857D01*
X149428572Y-104535714D01*
X149428572Y-104892857D01*
X149357144Y-105035714D01*
X149285715Y-105107143D01*
X149142858Y-105178571D01*
X148714286Y-105178571D01*
X148571429Y-105107143D01*
X148500001Y-105035714D01*
X152821429Y-102321429D02*
X152892858Y-102250000D01*
X153035715Y-102178571D01*
X153392858Y-102178571D01*
X153535715Y-102250000D01*
X153607144Y-102321429D01*
X153678572Y-102464286D01*
X153678572Y-102607143D01*
X153607144Y-102821429D01*
X152750001Y-103678571D01*
X153678572Y-103678571D01*
D12*
X144000000Y-116925000D02*
X160000000Y-116925000D01*
X160000000Y-116925000D02*
X160000000Y-119075000D01*
X160000000Y-119075000D02*
X144000000Y-119075000D01*
X144000000Y-119075000D02*
X144000000Y-116925000D01*
X147000000Y-116925000D02*
X147000000Y-119075000D01*
X155000000Y-107000000D02*
G75*
G03X155000000Y-107000000I-3000000J0D01*
G01*
D13*
G36*
X159373000Y-116373000D02*
X144627000Y-116373000D01*
X144627000Y-110627000D01*
X159373000Y-110627000D01*
X159373000Y-116373000D01*
X159373000Y-116373000D01*
G37*
X159373000Y-116373000D02*
X144627000Y-116373000D01*
X144627000Y-110627000D01*
X159373000Y-110627000D01*
X159373000Y-116373000D01*
M02*
